<?xml version="1.0" encoding="UTF-8" standalone="no"?><!DOCTYPE svg PUBLIC "-//W3C//DTD SVG 1.1//EN" "http://www.w3.org/Graphics/SVG/1.1/DTD/svg11.dtd"><svg width="100px" height="100px" version="1.1" xmlns="http://www.w3.org/2000/svg" xmlns:xlink="http://www.w3.org/1999/xlink" xml:space="preserve" xmlns:serif="http://www.serif.com/" style="fill-rule:evenodd;clip-rule:evenodd;stroke-linejoin:round;stroke-miterlimit:2;"><g><path d="M68.54,79.015c0,-9.627 -7.563,-17.463 -16.855,-17.463c-2.161,0 -4.322,0.448 -6.267,1.269c-1.945,-1.194 -4.466,-0.97 -6.195,0.746l-1.729,1.866l1.153,1.194l-3.241,3.358c-0.289,0.299 -0.289,0.746 -0,1.045c0.288,0.298 0.72,0.298 1.008,-0l3.242,-3.358l1.368,1.418l1.369,1.417l-3.242,3.359c-0.288,0.298 -0.288,0.746 0,1.044c0.288,0.299 0.72,0.299 1.009,0l3.241,-3.358l1.153,1.194l1.8,-1.791c1.513,-1.492 1.873,-3.806 1.153,-5.671c1.369,-0.448 2.809,-0.672 4.25,-0.672c7.635,-0 13.902,6.418 13.902,14.403c-0,3.06 -0.865,5.896 -2.593,8.358c-2.521,3.508 -6.555,5.821 -11.093,5.821c-5.691,-0 -10.517,-3.508 -12.606,-8.582l-0.504,-0.896l-3.529,-6.492l-0.36,-0.746l-3.962,-6.568c-2.954,-5 -8.284,-8.358 -14.335,-8.358c-5.69,0 -10.804,2.985 -13.758,7.538l0,-17.09l-2.953,-0l0,27.612c0.36,9.254 7.708,16.642 16.711,16.642c6.771,-0 12.606,-4.179 15.271,-10.224l-1.945,-3.582c-1.512,6.194 -6.915,10.746 -13.326,10.746c-6.554,-0 -11.957,-4.702 -13.397,-10.97c-0.217,-1.045 -0.361,-2.164 -0.361,-3.284c0,-0.522 0,-0.97 0.072,-1.492c0.721,-7.239 6.555,-12.836 13.686,-12.836c4.899,-0 9.148,2.612 11.597,6.642l0,0.074c0.289,0.448 0.505,0.821 0.721,1.269l0.936,1.791l3.314,6.194l1.224,2.239l2.954,5c2.953,5.074 8.283,8.507 14.406,8.507c5.258,0 10.012,-2.537 13.038,-6.492c2.449,-3.209 3.673,-6.941 3.673,-10.821Z" style="fill-rule:nonzero;"/><path d="M87.414,75.806l10.517,-11.567c0.648,-0.672 0.576,-1.791 -0.072,-2.463c-0.649,-0.672 -1.729,-0.597 -2.377,0.075l-10.445,11.418l2.377,2.537Z" style="fill-rule:nonzero;"/><path d="M87.413,80.881l-2.305,2.537l11.957,13.06c0.36,0.373 0.793,0.522 1.225,0.522c0.432,-0 0.792,-0.149 1.152,-0.448c0.649,-0.671 0.721,-1.791 0.072,-2.463l-12.101,-13.208Z" style="fill-rule:nonzero;"/><path d="M85.107,78.343l-15.27,-16.716c-0.649,-0.448 -1.513,-0.373 -2.089,0.149c-0.649,0.672 -0.721,1.791 -0.072,2.463l12.821,14.104l-14.334,15.746c-0.648,0.672 -0.576,1.792 0.072,2.463c0.36,0.299 0.72,0.448 1.153,0.448c0.36,0 0.648,-0.075 0.936,-0.298l16.783,-18.359Z" style="fill-rule:nonzero;"/></g><g><path d="M0,3.752l10.72,0l0,5.432c2.455,-3.259 5.728,-6.184 11.129,-6.184c4.91,0 8.675,2.256 10.639,6.1c3.273,-3.927 7.201,-6.1 12.357,-6.1c7.937,0 12.684,4.847 12.684,14.123l-0,25.071l-10.721,-0l0,-21.394c0,-5.181 -2.209,-7.855 -6.219,-7.855c-4.01,-0 -6.465,2.674 -6.465,7.855l0,21.477l-10.72,0l0,-21.477c0,-5.181 -2.209,-7.855 -6.219,-7.855c-4.01,-0 -6.465,2.674 -6.465,7.855l0,21.477l-10.72,0l0,-38.525Z" style="fill-rule:nonzero;"/><path d="M88.871,3.752l11.129,0l-14.484,39.445c-2.865,7.855 -5.974,10.78 -12.357,10.78c-3.846,-0 -6.71,-1.003 -9.493,-2.674l3.601,-7.856c1.391,0.836 3.191,1.504 4.583,1.504c1.8,0 2.782,-0.585 3.764,-2.507l-14.73,-38.608l11.129,-0l8.593,26.24l8.265,-26.324Z" style="fill-rule:nonzero;"/></g></svg>