<?xml version="1.0" encoding="UTF-8"?>
<svg id="Vrstva_1" xmlns="http://www.w3.org/2000/svg" version="1.1" viewBox="0 0 133 24">
  <!-- Generator: Adobe Illustrator 30.0.0, SVG Export Plug-In . SVG Version: 2.1.1 Build 123)  -->
  <defs>
    <style>
      .st0 {
        font-family: HalisR-Light, 'Halis R';
        font-size: 22px;
        font-weight: 300;
      }
    </style>
  </defs>
  <path d="M71.2,11.7c0-4.2-3.3-7.6-7.4-7.6s-1.9.2-2.8.5c-.9-.5-2-.4-2.7.3l-.8.8.5.5-1.4,1.5c-.1.1-.1.3,0,.5.1.1.3.1.4,0l1.4-1.5.6.6.6.6-1.4,1.5c-.1.1-.1.3,0,.5.1.1.3.1.4,0l1.4-1.5.5.5.8-.8c.7-.6.8-1.6.5-2.5.6-.2,1.2-.3,1.9-.3,3.4,0,6.1,2.8,6.1,6.2s-.4,2.6-1.1,3.6c-1.1,1.5-2.9,2.5-4.9,2.5s-4.6-1.5-5.5-3.7l-.2-.4-1.5-2.8-.2-.3-1.7-2.8c-1.3-2.2-3.6-3.6-6.3-3.6s-4.7,1.3-6,3.3V0h-1.3v12c.2,4,3.4,7.2,7.3,7.2s5.5-1.8,6.7-4.4l-.9-1.6c-.7,2.7-3,4.7-5.9,4.7s-5.3-2-5.9-4.7c0-.5-.2-.9-.2-1.4s0-.4,0-.6c.3-3.1,2.9-5.6,6-5.6s4,1.1,5.1,2.9h0c.1.2.2.4.3.6l.4.8,1.5,2.7.5,1,1.3,2.2c1.3,2.2,3.6,3.7,6.3,3.7s4.4-1.1,5.7-2.8c1.1-1.4,1.6-3,1.6-4.7Z"/>
  <path d="M0,4.6h4.1v2.1c.9-1.3,2.2-2.4,4.3-2.4s3.4.9,4.1,2.4c1.3-1.5,2.8-2.4,4.8-2.4,3.1,0,4.9,1.9,4.9,5.5v9.7h-4.1v-8.3c0-2-.9-3-2.4-3s-2.5,1-2.5,3v8.3h-4.1v-8.3c0-2-.9-3-2.4-3s-2.5,1-2.5,3v8.3H0V4.6Z"/>
  <path d="M34.4,4.6h4.3l-5.6,15.2c-1.1,3-2.3,4.2-4.8,4.2s-2.6-.4-3.7-1l1.4-3c.5.3,1.2.6,1.8.6s1.1-.2,1.5-1l-5.7-14.9h4.3l3.3,10.1,3.2-10.2Z"/>
  <path d="M79.5,10.3l4.6-5c.3-.3.3-.8,0-1.1-.3-.3-.8-.3-1,0l-4.6,4.9,1,1.1Z"/>
  <path d="M79.5,12.5l-1,1.1,5.3,5.7c.2.2.3.2.5.2s.3,0,.5-.2c.3-.3.3-.8,0-1.1l-5.3-5.7Z"/>
  <path d="M78.5,11.4l-6.7-7.2c-.3-.2-.7-.2-.9,0-.3.3-.3.8,0,1.1l5.6,6.1-6.3,6.8c-.3.3-.3.8,0,1.1.2.1.3.2.5.2s.3,0,.4-.1l7.4-7.9Z"/>
  <text class="st0" transform="translate(94.8 19.7)"><tspan x="0" y="0">API</tspan></text>
</svg>