<svg width="85" height="24" viewBox="0 0 85 24" fill="none" xmlns="http://www.w3.org/2000/svg">
<path d="M71.2002 11.6931C71.2002 7.52624 67.879 4.13459 63.7987 4.13459C62.8497 4.13459 61.9008 4.3284 61.0468 4.68371C60.1928 4.16689 59.0857 4.26379 58.3266 5.00673L57.5674 5.81427L58.0735 6.33109L56.6502 7.78466C56.5236 7.91386 56.5236 8.10767 56.6502 8.23688C56.7767 8.36608 56.9665 8.36608 57.093 8.23688L58.5164 6.78331L59.1173 7.39704L59.7183 8.01077L58.2949 9.46433C58.1684 9.59354 58.1684 9.78735 58.2949 9.91655C58.4215 10.0458 58.6112 10.0458 58.7378 9.91655L60.1611 8.46299L60.6672 8.97981L61.458 8.20457C62.1222 7.55855 62.2804 6.5572 61.9641 5.74966C62.5651 5.55585 63.1977 5.45895 63.8303 5.45895C67.1831 5.45895 69.935 8.23688 69.935 11.6931C69.935 13.0175 69.5554 14.245 68.7963 15.3109C67.6892 16.8291 65.9179 17.8304 63.9252 17.8304C61.4264 17.8304 59.3071 16.3122 58.3898 14.1157L58.1684 13.7281L56.6185 10.9179L56.4604 10.5949L54.7207 7.75235C53.4238 5.58816 51.0832 4.13459 48.4262 4.13459C45.9274 4.13459 43.6816 5.42665 42.3847 7.39704V0H41.0879V11.6285V11.9515C41.246 15.9569 44.4724 19.1548 48.4262 19.1548C51.3995 19.1548 53.9615 17.3459 55.1319 14.7295L54.2779 13.179C53.6136 15.86 51.2413 17.8304 48.4262 17.8304C45.5478 17.8304 43.1755 15.7954 42.5429 13.0821C42.448 12.6299 42.3847 12.1454 42.3847 11.6608C42.3847 11.4347 42.3847 11.2409 42.4164 11.0148C42.7327 7.88156 45.2948 5.45895 48.4262 5.45895C50.5771 5.45895 52.4433 6.5895 53.5187 8.33378V8.36608C53.6452 8.55989 53.7401 8.7214 53.835 8.91521L54.2462 9.69044L55.7012 12.3715L56.239 13.3405L57.5358 15.5047C58.8327 17.7012 61.1733 19.1871 63.8619 19.1871C66.171 19.1871 68.2586 18.0888 69.5871 16.3768C70.6625 14.9879 71.2002 13.3728 71.2002 11.6931Z" fill="white"/>
<path d="M0 4.58661H4.14361V6.68621C5.09253 5.42645 6.35775 4.2959 8.44537 4.2959C10.3432 4.2959 11.7982 5.16804 12.5574 6.65391C13.8226 5.13574 15.3408 4.2959 17.3336 4.2959C20.4017 4.2959 22.2363 6.16938 22.2363 9.75485V19.4453H18.0927V11.1761C18.0927 9.17342 17.2387 8.13977 15.6888 8.13977C14.1389 8.13977 13.19 9.17342 13.19 11.1761V19.4776H9.04635V11.1761C9.04635 9.17342 8.19233 8.13977 6.64243 8.13977C5.09253 8.13977 4.14361 9.17342 4.14361 11.1761V19.4776H0V4.58661Z" fill="white"/>
<path d="M34.3509 4.58691H38.6526L33.054 19.8332C31.9469 22.8696 30.745 24.0001 28.2778 24.0001C26.7912 24.0001 25.6841 23.6125 24.6086 22.9665L26.0004 19.9301C26.5381 20.2531 27.234 20.5115 27.7717 20.5115C28.4676 20.5115 28.8471 20.2854 29.2267 19.5425L23.5332 4.61922H27.835L31.1562 14.7619L34.3509 4.58691Z" fill="white"/>
<path d="M79.4881 10.304L84.1062 5.29731C84.3909 5.0066 84.3593 4.52208 84.0746 4.23136C83.7899 3.94065 83.3154 3.97295 83.0308 4.26367L78.4443 9.20579L79.4881 10.304Z" fill="white"/>
<path d="M79.4878 12.5005L78.4756 13.5987L83.7263 19.2515C83.8844 19.413 84.0742 19.4776 84.264 19.4776C84.4538 19.4776 84.6119 19.413 84.7701 19.2838C85.0547 18.9931 85.0864 18.5086 84.8017 18.2178L79.4878 12.5005Z" fill="white"/>
<path d="M78.4752 11.4023L71.7695 4.16681C71.4848 3.973 71.1053 4.0053 70.8522 4.23141C70.5676 4.52213 70.5359 5.00665 70.8206 5.29736L76.4508 11.4023L70.1564 18.218C69.8717 18.5087 69.9033 18.9932 70.188 19.2839C70.3461 19.4131 70.5043 19.4777 70.6941 19.4777C70.8522 19.4777 70.9788 19.4454 71.1053 19.3485L78.4752 11.4023Z" fill="white"/>
</svg>
