<?xml version="1.0" encoding="UTF-8"?><svg id="Vrstva_1" xmlns="http://www.w3.org/2000/svg" viewBox="0 0 127.321 24"><path d="M71.2,11.693c0-4.167-3.321-7.559-7.402-7.559-.949,0-1.898.194-2.752.549-.854-.517-1.961-.42-2.72.323l-.759.808.506.517-1.423,1.454c-.127.129-.127.323,0,.452.126.129.316.129.443,0l1.423-1.454.601.614.601.614-1.423,1.454c-.126.129-.126.323,0,.452.127.129.316.129.443,0l1.423-1.454.506.517.791-.775c.664-.646.822-1.647.506-2.455.601-.194,1.234-.291,1.866-.291,3.353,0,6.105,2.778,6.105,6.234,0,1.324-.38,2.552-1.139,3.618-1.107,1.518-2.878,2.52-4.871,2.52-2.499,0-4.618-1.518-5.535-3.715l-.221-.388-1.55-2.81-.158-.323-1.74-2.843c-1.297-2.164-3.638-3.618-6.294-3.618-2.499,0-4.745,1.292-6.042,3.262V0h-1.297v11.951c.158,4.005,3.385,7.203,7.338,7.203,2.973,0,5.535-1.809,6.706-4.425l-.854-1.55c-.664,2.681-3.037,4.651-5.852,4.651-2.878,0-5.251-2.035-5.883-4.748-.095-.452-.158-.937-.158-1.421,0-.226,0-.42.032-.646.316-3.133,2.878-5.556,6.01-5.556,2.151,0,4.017,1.131,5.092,2.875v.032c.126.194.221.355.316.549l.411.775,1.455,2.681.538.969,1.297,2.164c1.297,2.197,3.638,3.682,6.326,3.682,2.309,0,4.397-1.098,5.725-2.81,1.075-1.389,1.613-3.004,1.613-4.684Z"/><path d="M0,4.587h4.144v2.1c.949-1.26,2.214-2.39,4.302-2.39,1.898,0,3.353.872,4.112,2.358,1.265-1.518,2.783-2.358,4.776-2.358,3.068,0,4.903,1.873,4.903,5.459v9.69h-4.144v-8.269c0-2.003-.854-3.036-2.404-3.036s-2.499,1.034-2.499,3.036v8.302h-4.144v-8.302c0-2.003-.854-3.036-2.404-3.036s-2.499,1.034-2.499,3.036v8.302H0V4.587Z"/><path d="M34.351,4.587h4.302l-5.599,15.246c-1.107,3.036-2.309,4.167-4.776,4.167-1.487,0-2.594-.388-3.669-1.034l1.392-3.036c.538.323,1.234.581,1.771.581.696,0,1.075-.226,1.455-.969l-5.694-14.923h4.302l3.321,10.143,3.195-10.175Z"/><path d="M79.488,10.304l4.618-5.007c.285-.291.253-.775-.032-1.066-.285-.291-.759-.258-1.044.032l-4.587,4.942,1.044,1.098Z"/><path d="M79.488,12.501l-1.012,1.098,5.251,5.653c.158.162.348.226.538.226s.348-.065.506-.194c.285-.291.316-.775.032-1.066l-5.314-5.717Z"/><path d="M78.475,11.402l-6.706-7.236c-.285-.194-.664-.162-.917.065-.285.291-.316.775-.032,1.066l5.63,6.105-6.294,6.816c-.285.291-.253.775.032,1.066.158.129.316.194.506.194.158,0,.285-.032.411-.129l7.37-7.946Z"/><path d="M105.455,15.292h-6.711l-1.65,4.115c-.065.176-.242.285-.418.285h-.946c-.153,0-.241-.153-.197-.285l6.271-15.116c.044-.11.176-.198.308-.198.133,0,.242.088.309.198l6.271,15.116c.044.132-.044.285-.198.285h-.945c-.177,0-.353-.109-.418-.285l-1.673-4.115ZM99.162,14.28h5.875l-2.927-7.261-2.948,7.261Z"/><path d="M113,19.407c0,.176-.133.308-.309.308h-.77c-.177,0-.309-.132-.309-.308V4.621c0-.176.132-.308.309-.308h5.303c4.004,0,5.192,2.75,5.192,4.621,0,2.838-2.509,4.664-4.862,4.664h-4.555v5.81ZM117.444,12.498c2.904-.044,3.608-2.465,3.608-3.565,0-1.21-.704-3.542-3.696-3.542h-4.356v7.107h4.444Z"/><path d="M127.321,19.407c0,.176-.133.308-.309.308h-.77c-.177,0-.309-.132-.309-.308V4.621c0-.176.132-.308.309-.308h.77c.176,0,.309.132.309.308v14.786Z"/></svg>