<?xml version="1.0" standalone="no"?>
<!DOCTYPE svg PUBLIC "-//W3C//DTD SVG 20010904//EN"
 "http://www.w3.org/TR/2001/REC-SVG-20010904/DTD/svg10.dtd">
<svg version="1.0" xmlns="http://www.w3.org/2000/svg"
 width="700.000000pt" height="700.000000pt" viewBox="0 0 700.000000 700.000000"
 preserveAspectRatio="xMidYMid meet">
<metadata>
Created by potrace 1.14, written by Peter Selinger 2001-2017
</metadata>
<g transform="translate(0.000000,700.000000) scale(0.100000,-0.100000)"
fill="#000000" stroke="none">
<path d="M1405 6784 c-231 -36 -427 -153 -598 -357 l-57 -67 0 188 0 189 -375
0 -375 0 0 -1349 0 -1348 375 0 375 0 1 788 c1 433 2 798 4 812 30 290 186
449 439 452 248 2 399 -141 435 -412 5 -36 9 -405 9 -820 1 -415 1 -770 1
-787 l1 -33 375 0 375 0 1 803 c0 441 3 813 5 826 34 188 99 301 208 365 102
60 270 75 386 36 154 -52 230 -152 276 -365 3 -16 7 -393 8 -836 2 -443 5
-810 8 -815 5 -7 619 -11 730 -5 15 1 16 70 14 954 -2 523 -6 973 -10 999 -70
513 -374 786 -876 786 -322 1 -580 -116 -814 -367 -51 -56 -55 -56 -84 -3 -43
78 -146 185 -227 236 -144 90 -263 125 -450 131 -71 2 -143 1 -160 -1z"/>
<path d="M6221 6726 c-4 -6 -20 -51 -36 -101 -15 -49 -42 -137 -60 -195 -19
-58 -55 -172 -81 -255 -25 -82 -61 -197 -80 -255 -18 -58 -72 -229 -119 -380
-48 -151 -111 -354 -141 -450 -30 -96 -57 -179 -58 -185 -3 -11 -71 192 -550
1660 l-52 160 -393 3 c-216 1 -390 -1 -388 -5 3 -5 42 -105 86 -223 45 -118
86 -224 91 -235 5 -11 23 -58 40 -105 17 -47 35 -94 40 -105 5 -11 33 -85 64
-165 30 -80 102 -269 159 -420 58 -151 173 -455 257 -675 83 -220 158 -413
165 -430 7 -16 38 -99 70 -184 l58 -154 -18 -31 c-27 -47 -76 -95 -117 -117
-83 -43 -241 -25 -382 45 l-68 33 -23 -51 c-13 -28 -68 -149 -124 -270 -56
-120 -101 -222 -101 -226 0 -9 153 -85 235 -116 114 -42 238 -65 378 -69 413
-11 627 125 818 522 27 56 49 106 49 111 0 5 6 22 14 38 14 29 54 138 276 744
61 168 120 328 130 355 10 28 50 136 89 240 38 105 111 303 161 440 212 578
287 782 335 915 13 36 31 82 39 102 16 37 16 38 -6 42 -49 10 -748 3 -757 -8z"/>
<path d="M3 2328 c2 -568 6 -1049 11 -1068 4 -19 16 -69 27 -110 124 -462 504
-808 964 -876 64 -10 254 -12 299 -3 23 4 61 10 86 14 62 9 207 58 282 96 211
106 402 293 522 510 20 36 36 73 36 83 0 22 -123 248 -130 238 -3 -4 -14 -34
-25 -67 -45 -141 -144 -297 -255 -403 -255 -243 -621 -326 -950 -216 -336 113
-589 414 -650 774 -28 161 -10 378 42 514 11 28 22 60 26 71 10 34 83 158 127
215 57 74 156 167 233 219 90 60 230 120 317 136 17 2 41 7 55 10 54 12 205
12 288 -1 144 -22 270 -71 392 -154 98 -67 227 -204 276 -295 12 -22 229 -427
291 -545 164 -307 360 -638 443 -748 223 -296 560 -465 925 -462 139 1 237 17
360 59 529 184 861 728 793 1301 -54 455 -361 848 -779 1001 -143 52 -245 68
-409 64 -173 -4 -197 -7 -320 -48 l-96 -32 -55 22 c-106 42 -227 32 -320 -28
-26 -16 -76 -61 -110 -100 -35 -39 -66 -72 -68 -75 -3 -2 13 -22 34 -44 l39
-39 -20 -23 c-10 -13 -62 -67 -114 -121 -85 -87 -107 -115 -109 -139 -1 -11
41 -48 56 -48 7 0 68 57 136 126 l123 126 91 -94 c51 -51 92 -97 92 -103 0 -5
-41 -52 -90 -103 -119 -120 -149 -159 -142 -180 8 -22 33 -42 52 -42 9 0 71
56 137 125 l122 125 41 -42 40 -42 79 80 c91 94 114 128 137 208 13 44 16 77
11 125 -4 37 -8 77 -9 91 -2 22 4 26 73 42 41 10 122 20 180 21 236 8 448 -64
633 -213 200 -160 336 -409 364 -660 35 -324 -58 -611 -270 -829 -325 -335
-824 -389 -1208 -131 -80 54 -201 176 -255 255 -22 33 -58 96 -79 140 -22 44
-53 105 -71 135 -17 30 -49 89 -71 130 -41 76 -83 154 -160 294 -24 43 -43 80
-43 81 0 9 -295 488 -331 537 -173 238 -441 407 -734 461 -76 14 -318 17 -385
4 -310 -59 -572 -226 -755 -481 l-20 -28 0 593 0 594 -103 3 -103 3 4 -1033z"/>
<path d="M4780 2696 c-64 -21 -93 -115 -53 -175 15 -23 37 -48 123 -142 14
-15 55 -60 91 -100 37 -41 80 -88 95 -105 16 -17 47 -50 69 -75 22 -24 65 -71
95 -104 30 -34 78 -86 105 -116 83 -93 217 -239 272 -298 29 -31 53 -59 53
-63 0 -4 -24 -33 -52 -64 -29 -32 -64 -69 -77 -83 -13 -14 -48 -54 -78 -88
-31 -34 -67 -75 -82 -91 -33 -35 -208 -226 -281 -307 -208 -229 -347 -382
-383 -420 -62 -66 -80 -101 -73 -147 8 -47 19 -65 56 -91 41 -29 102 -19 140
22 39 43 216 237 225 247 10 11 129 142 250 274 33 36 105 115 161 175 55 61
120 132 145 159 24 27 55 61 69 76 46 48 206 224 246 270 21 25 45 50 51 55
13 10 16 7 -116 150 -31 33 -96 105 -146 159 -49 55 -97 106 -105 115 -9 9
-56 61 -105 115 -50 55 -99 109 -110 121 -11 12 -42 46 -69 76 -57 62 -110
120 -247 269 -53 58 -109 120 -124 138 -46 55 -85 68 -145 48z"/>
<path d="M6714 2691 c-25 -16 -68 -60 -219 -227 -125 -137 -175 -191 -200
-219 -16 -17 -66 -71 -110 -120 -44 -49 -91 -100 -105 -115 -91 -97 -120 -130
-120 -138 0 -5 36 -47 80 -93 l80 -84 37 41 c21 22 58 63 82 90 66 72 212 233
242 265 14 16 61 68 105 116 77 85 149 164 228 250 56 61 66 77 70 115 7 71
-34 126 -101 132 -27 3 -50 -1 -69 -13z"/>
<path d="M6043 1254 c-43 -47 -78 -89 -78 -93 0 -5 41 -53 90 -106 50 -54 95
-103 100 -109 30 -34 191 -210 294 -321 39 -43 112 -123 244 -269 123 -135
159 -159 219 -141 51 16 93 81 83 130 -2 11 -4 25 -4 31 -1 6 -9 20 -18 31
-18 20 -165 180 -232 252 -18 20 -68 74 -110 120 -79 87 -104 114 -175 191
-22 25 -84 92 -136 150 -52 57 -106 116 -120 130 -14 14 -37 40 -52 57 l-26
33 -79 -86z"/>
</g>
</svg>
